<?xml version="1.0" encoding="UTF-8"?>
<svg width="60px" height="60px" viewBox="0 0 60 60" version="1.1" xmlns="http://www.w3.org/2000/svg" xmlns:xlink="http://www.w3.org/1999/xlink">
    <title>编组 7</title>
    <g id="页面" stroke="none" stroke-width="1" fill="none" fill-rule="evenodd">
        <g id="首页（新）备份-6" transform="translate(-1029.000000, -439.000000)" fill="#4C78FF">
            <g id="编组-38" transform="translate(274.000000, 358.000000)">
                <g id="编组-25" transform="translate(745.000000, 81.000000)">
                    <g id="编组-7" transform="translate(10.000000, 0.000000)">
                        <g id="Icon-3备份" opacity="0.21">
                            <path d="M0,30 L0,37 C0,49.7025 10.2975,60 23,60 L30,60 L37,60 C49.7025,60 60,49.7025 60,37 L60,30 L60,23 C60,10.2975 49.7025,0 37,0 L30,0 L23,0 C10.2975,0 0,10.2975 0,23 L0,30 Z" id="路径"></path>
                        </g>
                        <g id="重打单据" transform="translate(16.000000, 17.000000)">
                            <path d="M25.118376,5.82847986 L24.7890516,5.82847986 L24.7890516,3.40286805 L24.7890517,3.40287248 C24.7338814,1.4868248 23.1498549,-0.0291935162 21.2340057,0.000426739988 L6.75855411,0.000426739988 L6.75855424,0.000426741815 C4.84085689,-0.0265102966 3.25630054,1.49083434 3.19938,3.40864337 L3.19938,5.82684054 L2.82065608,5.82684054 L2.82065618,5.82684054 C1.28873903,5.83082073 0.0383297791,7.05397521 0,8.58603715 L0,13.1391054 L0,13.1391059 C0.0448636264,14.6914206 1.32946375,15.9188698 2.88159562,15.8925316 L3.204334,15.8925316 L3.204334,21.7041189 L3.20433412,21.7041005 C3.20037535,22.3524367 3.05275515,22.9918268 2.77210434,23.5762292 L2.43043072,24.2763202 L2.43043074,24.2763202 C1.82107474,25.5627692 2.36860689,27.0998718 3.65386972,27.7108751 L3.757607,27.7569987 L3.75760697,27.7569987 C4.12051233,27.9180265 4.5132422,28.0008131 4.91024248,27.9999858 L20.432108,27.9999858 L20.4321079,27.9999858 C21.5990938,28.0031803 22.7021302,27.4669464 23.420737,26.5470774 L23.4207369,26.5470776 C24.3066715,25.3953419 24.789758,23.9842854 24.795666,22.5310303 L24.795666,15.8925101 L25.1184044,15.8925101 L25.1184044,15.8925101 C26.6732811,15.9210809 27.9600025,14.6893916 28,13.1341613 L28,8.57945206 L28,8.57945245 C27.9595643,7.02555412 26.6718896,5.79624238 25.1184044,5.8285156 L25.118376,5.82847986 Z M22.3627601,15.8957841 L22.3627601,22.5351249 L22.3627601,22.5351425 C22.3594334,23.4848915 22.0441089,24.4072111 21.4653402,25.1600688 L21.4653402,25.1600688 C21.2154913,25.4800195 20.8321689,25.6668952 20.4263216,25.6666307 L4.90691667,25.6666307 L4.90691667,25.6666307 C4.82789144,25.667623 4.75151621,25.6381228 4.69367925,25.5842415 L4.69367923,25.5842415 C4.60835364,25.5043065 4.58499271,25.3781075 4.63604759,25.2729061 L4.97607538,24.5744615 L4.97607527,24.5744618 C5.40564492,23.6815765 5.6306615,22.7040588 5.63472413,21.7131396 L5.63472413,15.8990634 L22.3627601,15.8957841 Z M5.63473688,5.83012087 L5.63473688,3.41357018 L5.63473688,3.41357039 C5.6570327,2.81047408 6.15615584,2.3352782 6.75937962,2.34284326 L21.2636469,2.34284326 L21.2636469,2.34284326 C21.8594207,2.34307294 22.3467119,2.81777932 22.3627656,3.41357039 L22.3627656,5.83259081 L5.63473688,5.83012087 Z M25.5646117,8.58764912 L25.5646117,13.1333055 L25.5646117,13.1333052 C25.5574333,13.37292 25.3587808,13.5621015 25.1191989,13.5574793 L2.86676639,13.5574793 L2.8667664,13.5574793 C2.63281914,13.557157 2.44125117,13.371343 2.43370549,13.1374242 L2.43370549,8.59176783 L2.43370549,8.59176814 C2.44598502,8.35472678 2.64185096,8.16892326 2.87911557,8.16924284 L25.1307279,8.16924284 L25.1307279,8.16924284 C25.3649948,8.1691213 25.5570551,8.35506045 25.5646117,8.58929842 L25.5646117,8.58764912 Z" id="形状"></path>
                            <path d="M7.7012369,19.5206142 L18.0057961,19.5206142 L18.0057961,19.5206142 C18.651888,19.5134674 19.1698567,18.9837054 19.1627859,18.3373575 C19.1558849,17.719596 18.6702682,17.2135327 18.053547,17.1814865 L7.74898777,17.1814865 L7.74898784,17.1814865 C7.10288775,17.1878759 6.58429841,17.7170305 6.59062652,18.3633866 C6.59679348,18.9815775 7.08245431,19.4884012 7.69959109,19.5206142 L7.7012369,19.5206142 Z" id="路径" opacity="0.587821"></path>
                            <path d="M7.69300775,22.7517384 L13.3639833,22.7517384 L13.3639834,22.7517384 C14.0101053,22.748124 14.5309611,22.2212021 14.5273655,21.5748241 C14.5238821,20.9549621 14.0379095,20.4453023 13.4191433,20.4126106 L7.80169815,20.4126106 L7.80169818,20.4126106 C7.15657957,20.3764496 6.60430268,20.870316 6.56815731,21.5156903 C6.53244254,22.1533518 7.01431922,22.7019255 7.65103372,22.7484454 L7.69219914,22.7484454 L7.69300775,22.7517384 Z" id="路径" opacity="0.587821"></path>
                        </g>
                    </g>
                </g>
            </g>
        </g>
    </g>
</svg>