<?xml version="1.0" encoding="UTF-8"?>
<svg width="60px" height="60px" viewBox="0 0 60 60" version="1.1" xmlns="http://www.w3.org/2000/svg" xmlns:xlink="http://www.w3.org/1999/xlink">
    <title>编组 6</title>
    <g id="页面" stroke="none" stroke-width="1" fill="none" fill-rule="evenodd">
        <g id="首页（新）备份-6" transform="translate(-1179.000000, -439.000000)" fill="#FF82AC">
            <g id="编组-38" transform="translate(274.000000, 358.000000)">
                <g id="编组-26" transform="translate(903.000000, 81.000000)">
                    <g id="编组-6" transform="translate(2.000000, 0.000000)">
                        <g id="Icon备份" opacity="0.3">
                            <path d="M0,30 L0,37 C0,49.7025 10.2975,60 23,60 L30,60 L37,60 C49.7025,60 60,49.7025 60,37 L60,30 L60,23 C60,10.2975 49.7025,0 37,0 L30,0 L23,0 C10.2975,0 0,10.2975 0,23 L0,30 Z" id="路径"></path>
                        </g>
                        <g id="垃圾桶" transform="translate(16.000000, 16.000000)">
                            <path d="M18.1300002,13.0725 L18.1300002,18.3225 C18.1300002,19.1975 17.6925002,19.635 16.8175002,19.635 L16.8175002,19.635 C15.9425002,19.635 15.5050002,19.1975 15.5050002,18.3225 L15.5050002,13.0725 C15.5050002,12.1975 15.9425002,11.76 16.8175002,11.76 L16.8175002,11.76 C17.6925002,11.76 18.1300002,12.1975 18.1300002,13.0725 Z" id="路径" opacity="0.78"></path>
                            <path d="M12.8800002,13.0725 L12.8800002,18.3225 C12.8800002,19.1975 12.4425002,19.635 11.5675002,19.635 L11.5675002,19.635 C10.6925002,19.635 10.2550002,19.1975 10.2550002,18.3225 L10.2550002,13.0725 C10.2550002,12.1975 10.6925002,11.76 11.5675002,11.76 L11.5675002,11.76 C12.4425002,11.76 12.8800002,12.1975 12.8800002,13.0725 Z" id="路径" opacity="0.78"></path>
                            <path d="M26.6875002,4.27875 L19.8800002,4.27875 L19.8800002,2.625 L19.8800002,2.625 C19.8800002,1.17525352 18.7047467,0 17.2550002,0 L11.1300002,0 L11.1300001,0 C9.68025357,0 8.50500006,1.17525352 8.50500006,2.625 C8.50500006,2.625 8.50500006,2.625 8.50500006,2.625 L8.50500006,4.27875 L1.31250006,4.27875 L1.3125,4.27875 C0.587625391,4.27875003 0,4.86637539 0,5.59125 C0,6.31612461 0.587625391,6.90375 1.3125,6.90375 L3.255,6.90375 L3.255,24.5 L3.255,24.5 C3.25499971,26.4329948 4.82200195,28 6.755,28 L21.63,28 L21.6299998,28 C23.5629952,28 25.1299998,26.4329975 25.1299998,24.5 L25.1299998,6.90374947 L26.6874998,6.90374947 L26.6874998,6.90374947 C27.4123744,6.9037495 28,6.31612408 28,5.59124947 C28,4.86637486 27.4123744,4.27874947 26.6874998,4.27874947 L26.6875002,4.27875 Z M11.1300002,4.27875 L11.1300002,2.625 L17.2550002,2.625 L17.2550002,4.27875 L11.1300002,4.27875 Z M22.5050002,24.5 L22.5050002,24.5 C22.5050002,24.9832488 22.113249,25.375 21.6300002,25.375 L6.75500017,25.375 L6.75500013,25.375 C6.27175131,25.375 5.88000013,24.9832488 5.88000013,24.5 C5.88000013,24.5 5.88000013,24.5 5.88000013,24.5 L5.88000013,6.90375 L22.5050002,6.90375 L22.5050002,24.5 Z" id="形状" opacity="0.901274"></path>
                        </g>
                    </g>
                </g>
            </g>
        </g>
    </g>
</svg>