<?xml version="1.0" encoding="UTF-8"?>
<svg width="60px" height="60px" viewBox="0 0 60 60" version="1.1" xmlns="http://www.w3.org/2000/svg" xmlns:xlink="http://www.w3.org/1999/xlink">
    <title>编组 10</title>
    <g id="页面" stroke="none" stroke-width="1" fill="none" fill-rule="evenodd">
        <g id="首页（新）备份-6" transform="translate(-451.000000, -439.000000)" fill="#16DBCC">
            <g id="编组-38" transform="translate(274.000000, 358.000000)">
                <g id="编组-30" transform="translate(175.000000, 81.000000)">
                    <g id="编组-10" transform="translate(2.000000, 0.000000)">
                        <g id="Icon-1" opacity="0.21">
                            <path d="M0,30 L0,37 C0,49.7025 10.2975,60 23,60 L30,60 L37,60 C49.7025,60 60,49.7025 60,37 L60,30 L60,23 C60,10.2975 49.7025,0 37,0 L30,0 L23,0 C10.2975,0 0,10.2975 0,23 L0,30 Z" id="路径"></path>
                        </g>
                        <g id="系统培训" transform="translate(16.000000, 16.000000)" fill-rule="nonzero">
                            <path d="M8.00372935,22.7155583 L21.2870046,22.7155583 L26.1268659,27.670596 L26.126866,27.6705961 C26.3300006,27.8802324 26.6091757,27.999007 26.9011136,28 L26.9011136,28 C27.1942713,28 27.4749418,27.881371 27.6786567,27.6705961 L27.6786567,27.6705961 C28.1068933,27.2260322 28.1068933,26.5224977 27.6786567,26.0779366 L24.3938762,22.7147517 L25.611257,22.7147517 L25.6112569,22.7147517 C26.9432245,22.6899844 28.0077856,21.5992079 27.9999468,20.2672937 L27.9999468,4.41069715 L27.9999468,4.41068777 C28.00867,3.0785521 26.943468,1.9874939 25.6112488,1.96406098 L15.1028991,1.96406098 L15.1028991,1.10432155 L15.1028992,1.10432497 C15.0975353,0.808599852 14.9773135,0.526559885 14.7676688,0.317875629 L14.7676689,0.31787566 C14.5590741,0.11427118 14.2791703,0 13.9876535,0 L13.9810641,0 L13.9810641,0 C13.378925,0.0143659674 12.8994896,0.508732302 12.9037068,1.11090919 L12.9037068,1.96323868 L2.38876617,1.96323868 L2.38876605,1.96323868 C1.0560327,1.98623516 -0.00955395105,3.07806339 6.46066774e-05,4.41069943 L6.46066774e-05,20.2664757 L6.46066774e-05,20.2664698 C-0.00775488822,21.5981051 1.05705557,22.6884086 2.38876061,22.7122872 L4.89600354,22.7122872 L1.61040253,26.0746518 L1.61040241,26.0746519 C1.18290152,26.5185541 1.18290152,27.2209402 1.61040264,27.6648423 L1.61040272,27.6648424 C2.04198671,28.0944004 2.73966722,28.0944004 3.17125122,27.6648423 L8.00372935,22.7155583 Z M2.19770625,20.487976 L2.17464354,4.21798114 L25.80732,4.19327598 L25.80732,20.4640911 L2.19770625,20.487976 Z" id="形状"></path>
                            <path d="M6.67104523,13.8875807 L6.67104531,13.8875807 C6.06693985,13.8301017 5.53060901,14.2731329 5.47312009,14.8771227 C5.4156298,15.4811097 5.85874795,16.0173353 6.46285615,16.074813 C6.53209638,16.081401 6.6018059,16.081401 6.67104613,16.0748131 L21.3323217,16.0748131 L21.3323217,16.0748131 C21.9364272,16.1272741 22.4686886,15.6801747 22.5211591,15.0761878 C22.5736304,14.4722008 22.1264434,13.9400437 21.5223379,13.8875835 C21.4591184,13.8820935 21.3955418,13.8820935 21.3323223,13.8875835 L6.67104523,13.8875807 Z" id="路径" opacity="0.5"></path>
                            <path d="M6.67104523,8.42691682 L6.67104526,8.42691682 C6.0667128,8.3718798 5.53217875,8.81707635 5.4771293,9.42129029 C5.42208149,10.0255042 5.86736535,10.5599335 6.47169781,10.6149721 C6.53800931,10.6210111 6.60473239,10.6210111 6.67104362,10.6149721 L14.2281803,10.6149721 L14.2281802,10.6149721 C14.8325127,10.6647459 15.3627804,10.2152836 15.4125626,9.61106688 C15.4623461,9.00685294 15.0127956,8.47668922 14.4084604,8.42691682 C14.348468,8.42197578 14.288171,8.42197578 14.2281789,8.42691681 L6.67104523,8.42691682 Z" id="路径" opacity="0.5"></path>
                        </g>
                    </g>
                </g>
            </g>
        </g>
    </g>
</svg>