<?xml version="1.0" encoding="UTF-8"?>
<svg width="60px" height="60px" viewBox="0 0 60 60" version="1.1" xmlns="http://www.w3.org/2000/svg" xmlns:xlink="http://www.w3.org/1999/xlink">
    <title>Icon-2</title>
    <g id="页面" stroke="none" stroke-width="1" fill="none" fill-rule="evenodd">
        <g id="首页（新）备份-6" transform="translate(-736.000000, -439.000000)" fill="#FFE600">
            <g id="编组-38" transform="translate(274.000000, 358.000000)">
                <g id="编组-28" transform="translate(460.000000, 81.000000)">
                    <g id="Icon-2" transform="translate(2.000000, 0.000000)">
                        <path d="M0,30 L0,37 C0,49.7025 10.2975,60 23,60 L30,60 L37,60 C49.7025,60 60,49.7025 60,37 L60,30 L60,23 C60,10.2975 49.7025,0 37,0 L30,0 L23,0 C10.2975,0 0,10.2975 0,23 L0,30 Z" id="路径" opacity="0.21"></path>
                        <g id="编组-40" transform="translate(15.000000, 12.999975)">
                            <path d="M0,11.316525 L12.9005,18.764625 C13.0394,18.844825 13.1851,18.902725 13.3333,18.939525 L13.3333,33.384725 L0.9201,26.038525 C0.3498,25.701025 0,25.087625 0,24.424925 L0,11.316525 Z M30,11.118525 L30,24.424925 C30,25.087625 29.6502,25.701025 29.0799,26.038525 L16.6667,33.384725 L16.6667,18.812925 C16.6969,18.797825 16.7269,18.781725 16.7566,18.764625 L30,11.118525 Z" id="形状"></path>
                            <path d="M0.4052,7.701425 C0.5628,7.502425 0.7617,7.334325 0.9936,7.210825 L14.1186,0.220125 C14.6695,-0.073375 15.3304,-0.073375 15.8814,0.220125 L29.0064,7.210825 C29.1852,7.306025 29.3443,7.427725 29.48,7.569725 L15.0899,15.877825 C14.9953,15.932525 14.908,15.995025 14.8285,16.064025 C14.749,15.995025 14.6618,15.932525 14.5671,15.877825 L0.4052,7.701425 Z" id="路径" opacity="0.499209"></path>
                        </g>
                    </g>
                </g>
            </g>
        </g>
    </g>
</svg>