<?xml version="1.0" encoding="UTF-8"?>
<svg width="60px" height="60px" viewBox="0 0 60 60" version="1.1" xmlns="http://www.w3.org/2000/svg" xmlns:xlink="http://www.w3.org/1999/xlink">
    <title>编组 8备份</title>
    <g id="页面" stroke="none" stroke-width="1" fill="none" fill-rule="evenodd">
        <g id="首页（新）备份-6" transform="translate(-878.000000, -439.000000)" fill="#4AD991">
            <g id="编组-38" transform="translate(274.000000, 358.000000)">
                <g id="编组-24" transform="translate(602.000000, 81.000000)">
                    <g id="编组-8备份" transform="translate(2.000000, 0.000000)">
                        <g id="Icon" opacity="0.21">
                            <path d="M0,30 L0,37 C0,49.7025 10.2975,60 23,60 L30,60 L37,60 C49.7025,60 60,49.7025 60,37 L60,30 L60,23 C60,10.2975 49.7025,0 37,0 L30,0 L23,0 C10.2975,0 0,10.2975 0,23 L0,30 Z" id="路径"></path>
                        </g>
                        <g id="设备信息" transform="translate(16.000000, 16.000000)" fill-rule="nonzero">
                            <path d="M2,16.000007 L26,16.000007 L26,16.000007 C27.1045686,16.000007 28,16.8954384 28,18.000007 L28,26.000007 L28,26.000007 C28,27.1045685 27.1045686,28.000007 26,28.000007 C26,28.000007 26,28.000007 26,28.000007 L2,28.000007 L2,28.000007 C0.895431422,28.000007 0,27.1045685 0,26.000007 C0,26.000007 0,26.000007 0,26.000007 L0,18.000007 L0,18.000007 C0,16.8954387 0.895431422,16.000007 2,16.000007 L2,16.000007 Z M4.99999504,20.0000156 L4.99999504,20.0000156 C4.44771075,20.0000156 3.99999504,20.4477313 3.99999504,21.0000156 C3.99999504,21.5522987 4.44771075,22.0000156 4.99999504,22.0000156 L11.0000073,22.0000156 L11.0000073,22.0000156 C11.552291,22.0000156 12.0000067,21.5522987 12.0000067,21.0000156 C12.0000067,20.4477313 11.552291,20.0000156 11.0000073,20.0000156 L4.99999504,20.0000156 L4.99999504,20.0000156 Z" id="形状"></path>
                            <path d="M2,0 L26,0 L26,0 C27.1045686,0 28,0.895431422 28,2 L28,10 L28,10 C28,11.1045615 27.1045686,12 26,12 C26,12 26,12 26,12 L2,12 L2,12 C0.895431422,12 0,11.1045615 0,10 C0,10 0,10 0,10 L0,2 L0,2 C0,0.895431724 0.895431422,0 2,0 L2,0 Z M4.9999945,4.00000858 L4.99999447,4.00000858 C4.44771077,4.00009992 4.00006888,4.44788835 4.00015911,5.00017479 C4.00025044,5.55232997 4.44783928,5.99991717 4.99999447,6.00000858 L11.0000073,6.00000858 L11.0000074,6.00000858 C11.5522911,5.99991878 11.999933,5.55213036 11.9998428,4.99984393 C11.9997514,4.44768875 11.5521626,4.00010155 11.0000074,4.00000858 L4.99999453,4.00000858 L4.9999945,4.00000858 Z" id="形状" opacity="0.5"></path>
                        </g>
                    </g>
                </g>
            </g>
        </g>
    </g>
</svg>