<?xml version="1.0" encoding="UTF-8"?>
<svg width="60px" height="60px" viewBox="0 0 60 60" version="1.1" xmlns="http://www.w3.org/2000/svg" xmlns:xlink="http://www.w3.org/1999/xlink">
    <title>Icon-3</title>
    <g id="页面" stroke="none" stroke-width="1" fill="none" fill-rule="evenodd">
        <g id="首页（新）备份-6" transform="translate(-308.000000, -439.000000)" fill="#8280FF">
            <g id="编组-38" transform="translate(274.000000, 358.000000)">
                <g id="编组-31" transform="translate(32.000000, 81.000000)">
                    <g id="Icon-3" transform="translate(2.000000, 0.000000)">
                        <path d="M0,30 L0,37 C0,49.7025 10.2975,60 23,60 L30,60 L37,60 C49.7025,60 60,49.7025 60,37 L60,30 L60,23 C60,10.2975 49.7025,0 37,0 L30,0 L23,0 C10.2975,0 0,10.2975 0,23 L0,30 Z" id="路径" opacity="0.21"></path>
                        <g id="编组-41" transform="translate(14.000028, 18.000000)">
                            <path d="M6.66667188,5.3333 C6.66667188,8.2789 9.05447188,10.6667 11.9999719,10.6667 C14.9454719,10.6667 17.3332719,8.2789 17.3332719,5.3333 C17.3332719,2.3878 14.9454719,0 11.9999719,0 C9.05447188,0 6.66667188,2.3878 6.66667188,5.3333 Z M19.9999719,10.6667 C19.9999719,12.8758 21.7908719,14.6667 23.9999719,14.6667 C26.2090719,14.6667 27.9999719,12.8758 27.9999719,10.6667 C27.9999719,8.4575 26.2090719,6.6667 23.9999719,6.6667 C21.7908719,6.6667 19.9999719,8.4575 19.9999719,10.6667 Z" id="形状" opacity="0.587821"></path>
                            <path d="M11.9777719,13.3333 C5.68257188,13.3333 0.517671876,16.5687 0.000871875992,22.9323 C-0.027328124,23.2789 0.635571876,24 0.969971876,24 L22.9955719,24 C23.9971719,24 24.0127719,23.194 23.9971719,22.9333 C23.6064719,16.3909 18.3615719,13.3333 11.9777719,13.3333 Z M31.2745719,24 L26.1332719,24 C26.1332719,20.9988 25.1416719,18.2291 23.4682719,16.0008 C28.0102719,16.0505 31.7188719,18.3469 31.9979719,23.2 C32.0091719,23.3955 31.9979719,24 31.2745719,24 Z" id="形状"></path>
                        </g>
                    </g>
                </g>
            </g>
        </g>
    </g>
</svg>