<?xml version="1.0" encoding="UTF-8"?>
<svg width="60px" height="60px" viewBox="0 0 60 60" version="1.1" xmlns="http://www.w3.org/2000/svg" xmlns:xlink="http://www.w3.org/1999/xlink">
    <title>编组 9备份</title>
    <g id="页面" stroke="none" stroke-width="1" fill="none" fill-rule="evenodd">
        <g id="首页（新）备份-6" transform="translate(-593.000000, -439.000000)" fill="#FF9066">
            <g id="编组-38" transform="translate(274.000000, 358.000000)">
                <g id="编组-29" transform="translate(317.000000, 81.000000)">
                    <g id="编组-9备份" transform="translate(2.000000, 0.000000)">
                        <g id="Icon-1备份" opacity="0.3">
                            <path d="M0,30 L0,37 C0,49.7025 10.2975,60 23,60 L30,60 L37,60 C49.7025,60 60,49.7025 60,37 L60,30 L60,23 C60,10.2975 49.7025,0 37,0 L30,0 L23,0 C10.2975,0 0,10.2975 0,23 L0,30 Z" id="路径"></path>
                        </g>
                        <g id="销毁:退货" transform="translate(16.000000, 16.000000)">
                            <path d="M26.4444253,28 L15.5555604,28 C14.6961177,28 14.0000071,27.3038897 14.0000071,26.4446739 C14.0000071,25.5862401 14.6961177,24.8893479 15.5555604,24.8893479 L24.8888693,24.8893479 L24.8888693,10.1906279 L14.0000044,3.39339833 L3.11113942,10.2062389 L3.11113942,12.4459712 C3.11113942,13.3051842 2.41502885,14.0012972 1.55558612,14.0012972 C0.696143388,14.0012972 2.85378947e-05,13.3051869 2.85378947e-05,12.4459712 L2.85378947e-05,9.33530808 L2.85378947e-05,9.33530018 C-0.00122292464,8.79724436 0.275460467,8.29695656 0.731148781,8.01331501 L13.1755697,0.236684694 L13.1755699,0.23668459 C13.6802035,-0.0788948979 14.3198219,-0.0788948979 14.8244555,0.236684798 L27.2688765,8.01331511 C27.7254316,8.29737917 28.0015428,8.7976121 27.9999935,9.33530303 L27.9999935,26.4446634 C27.9999935,27.3030972 27.3038764,28 26.4444337,28 L26.4444253,28 Z" id="形状" opacity="0.901274"></path>
                            <path d="M6.22222416,28 C2.78599542,28 0,25.2139839 0,21.7787012 C0,18.3426229 2.78599542,15.556541 6.22222416,15.556541 L15.555533,15.556541 L15.555533,15.556541 C16.1875937,15.5507982 16.7601818,15.9296944 17.003754,16.5149314 L17.003754,16.5149313 C17.2461078,17.099252 17.1100177,17.7727251 16.659978,18.2161908 L11.9933099,22.8829536 L11.9933099,22.8829536 C11.3754598,23.4112807 10.4569847,23.375639 9.88164581,22.8010124 L9.8816457,22.8010123 C9.30740875,22.227504 9.2717799,21.3064921 9.79997935,20.6900469 L11.8066436,18.6836527 L6.2222114,18.6836527 C4.50332594,18.6836527 3.11109932,20.0758761 3.11109932,21.7943158 L3.11109918,21.7942372 C3.11406015,23.5152175 4.50691056,24.9079457 6.22212923,24.9049552 C6.22213241,24.9049552 6.22213559,24.9049552 6.22213877,24.9049552 C7.01702575,24.9845553 7.62213647,25.6541344 7.62213647,26.4524757 C7.62213647,27.251599 7.01702575,27.9196179 6.22213877,28 L6.22222416,28 Z" id="形状" opacity="0.78"></path>
                        </g>
                    </g>
                </g>
            </g>
        </g>
    </g>
</svg>