<?xml version="1.0" encoding="UTF-8"?>
<svg width="60px" height="60px" viewBox="0 0 60 60" version="1.1" xmlns="http://www.w3.org/2000/svg" xmlns:xlink="http://www.w3.org/1999/xlink">
    <title>编组 3</title>
    <g id="页面" stroke="none" stroke-width="1" fill="none" fill-rule="evenodd">
        <g id="首页（新）备份-6" transform="translate(-1322.000000, -439.000000)" fill="#FEC53D">
            <g id="编组-38" transform="translate(274.000000, 358.000000)">
                <g id="编组-27" transform="translate(1046.000000, 81.000000)">
                    <g id="编组-3" transform="translate(2.000000, 0.000000)">
                        <g id="Icon-2备份" opacity="0.21">
                            <path d="M0,30 L0,37 C0,49.7025 10.2975,60 23,60 L30,60 L37,60 C49.7025,60 60,49.7025 60,37 L60,30 L60,23 C60,10.2975 49.7025,0 37,0 L30,0 L23,0 C10.2975,0 0,10.2975 0,23 L0,30 Z" id="路径"></path>
                        </g>
                        <g id="用户名" transform="translate(16.000000, 16.000000)">
                            <path d="M22.8027647,0 C25.5876868,0 27.8729252,2.13339734 27.9946154,4.82786743 L28,5.05402119 L28,22.9470815 C28,25.670619 25.7890787,27.8783253 23.0332304,27.9946203 L22.802769,28 L7.35108406,28 C4.56616194,28 2.28092353,25.8666221 2.15923337,23.172152 L2.15384871,22.9459982 L2.15384871,22.6649214 L2.15384871,22.6649397 C2.15449813,22.0701723 2.63717984,21.5885449 3.23194722,21.5891949 C3.77706046,21.5897901 4.23576328,21.9976094 4.30015463,22.5389051 L4.30769308,22.664905 L4.30769308,22.9470587 C4.30769308,24.4805976 5.56338601,25.7492105 7.16476798,25.840751 L7.35107571,25.8461357 L22.8027607,25.8461357 C24.4289129,25.8461357 25.7449145,24.6345976 25.8396827,23.1215222 L25.8461442,22.9470608 L25.8461442,5.05292774 C25.8461442,3.51938875 24.5904513,2.2507759 22.9890693,2.15923537 L22.8027638,2.15385074 L7.35107887,2.15385074 C5.72492663,2.15385074 4.40892497,3.36538879 4.31415683,4.87846415 L4.30769529,5.05184881 L4.30769529,5.59354198 L4.30769531,5.59352339 C4.30704593,6.18829076 3.8243642,6.66991815 3.22959682,6.66926821 C2.68448358,6.66867304 2.22578076,6.26085369 2.1613894,5.71955805 L2.15384871,5.59461661 L2.15384871,5.05292344 C2.15384871,2.3293859 4.36476999,0.121679625 7.12061836,0.00538459252 L7.35107971,0 L22.8027646,0 L22.8027647,0 Z M5.38460208,18.3077111 L5.38460214,18.3077111 C5.97936951,18.3077111 6.4615238,18.7898654 6.4615238,19.3846327 C6.4615238,19.9794001 5.97936951,20.4615544 5.38460214,20.4615544 L1.07692182,20.4615544 L1.07692179,20.4615544 C0.482154414,20.4615544 1.30944045e-07,19.9794001 1.30944045e-07,19.3846327 C1.30944045e-07,18.7898654 0.482154414,18.3077111 1.07692179,18.3077111 L5.38460211,18.3077111 L5.38460208,18.3077111 Z M5.38460208,12.923087 L5.38460213,12.923087 C5.97936951,12.923087 6.46152379,13.4052413 6.46152379,14.0000087 C6.46152379,14.5947761 5.97936951,15.0769303 5.38460213,15.0769303 L1.07692181,15.0769303 L1.07692179,15.0769303 C0.482154414,15.0769303 1.30944045e-07,14.5947761 1.30944045e-07,14.0000087 C1.30944045e-07,13.4052413 0.482154414,12.923087 1.07692179,12.923087 L5.38460211,12.923087 L5.38460208,12.923087 Z M5.38460208,7.53846296 L5.38460205,7.53846296 C5.97936943,7.53846296 6.46152371,8.02061724 6.46152371,8.61538461 C6.46152371,9.21015199 5.97936943,9.69230627 5.38460205,9.69230627 C5.38460203,9.69230627 5.38460202,9.69230627 5.38460201,9.69230627 L1.07692169,9.69230627 L1.07692166,9.69230627 C0.482154283,9.69230627 0,9.21015199 0,8.61538461 C0,8.02061724 0.482154283,7.53846296 1.07692166,7.53846296 L5.38460198,7.53846296 L5.38460208,7.53846296 Z" id="形状"></path>
                            <path d="M15.0769065,5.38463857 L15.0769066,5.38463857 C18.0507466,5.38440234 20.4617199,7.79498405 20.4619408,10.7688209 C20.4620702,12.3978884 19.7246757,13.9394223 18.4562837,14.9617206 C20.9407444,16.4694135 22.6153613,19.5935505 22.6153613,23.1538633 L22.6153613,23.1538633 C22.6153613,23.7486306 22.133207,24.2307849 21.5384397,24.2307849 C20.9436723,24.2307849 20.461518,23.7486306 20.461518,23.1538633 C20.461518,19.2414157 17.9910563,16.1538551 15.0768939,16.1538551 C12.1627411,16.1538552 9.69226987,19.2413936 9.69226987,23.1538633 L9.69226987,23.1538632 C9.69226987,23.7486306 9.21011559,24.2307849 8.61534821,24.2307849 C8.02058084,24.2307849 7.53842655,23.7486306 7.53842655,23.1538632 C7.53842655,19.5935505 9.21304032,16.4704956 11.6985769,14.9606479 L11.6985766,14.9606477 C9.38374073,13.0937654 9.02060113,9.70380302 10.8874835,7.38897659 C11.9092517,6.12203591 13.4492617,5.38525356 15.0768811,5.38463857 L15.0769065,5.38463857 Z M15.0769065,7.53846296 L15.0769066,7.53846296 C13.2926013,7.53846296 11.8461385,8.9849258 11.8461385,10.7692311 C11.8461385,12.5535364 13.2926013,13.9999992 15.0769066,13.9999992 C15.0769067,13.9999992 15.0769067,13.9999992 15.0769068,13.9999992 L15.0769066,13.9999992 C16.8612119,13.9999992 18.3076748,12.5535364 18.3076748,10.7692311 C18.3076748,8.9849258 16.8612119,7.53846296 15.0769066,7.53846296 L15.0769065,7.53846296 Z" id="形状" opacity="0.499209"></path>
                        </g>
                    </g>
                </g>
            </g>
        </g>
    </g>
</svg>