<?xml version="1.0" encoding="UTF-8"?>
<svg width="271px" height="186px" viewBox="0 0 271 186" version="1.1" xmlns="http://www.w3.org/2000/svg" xmlns:xlink="http://www.w3.org/1999/xlink">
    <title>Financial - Scenes 4备份</title>
    <defs>
        <path d="M13.6361837,2.10639991 L21.4618207,0.0701895329 L35.8623556,0.0701895329 C42.0237762,0.0701895329 47.9930669,2.1968422 52.7455348,6.08510936 L59.5447358,11.6481559 L54.4288506,24.6114262 L45.3938183,18.2237278 L44.3865573,24.6114262 L45.8481847,36.8825705 C46.0641887,38.6978041 44.6101404,40.282329 42.7672849,40.2402454 L15.2377969,39.6108692 C13.5223079,39.5717915 12.181567,38.1296747 12.2811562,36.4312984 L13.0463032,23.3819821 L10.2805419,28.6533362 L0.276257804,26.5145845 L3.84407618,11.9893341 C5.02986259,7.16188744 8.78931823,3.36755702 13.6361837,2.10639991 Z" id="path-1"></path>
        <path d="M2.30821163,10.3741482 C3.01560593,8.6327865 2.8977132,2.97336088 2.75033781,0.361280706 C5.99267219,0.941772191 12.3448206,3.10397052 11.8142843,7.10909499 C11.2837481,11.114257 12.7719023,12.11551 13.5824859,12.11551 C14.4669656,14.0020227 15.0418395,17.9926434 10.2666343,18.8633242 C5.49158071,19.7338548 1.49762804,15.598271 0.0975049833,13.4215688 C0.539669051,13.1313419 1.60077944,12.11551 2.30821163,10.3741482 Z" id="path-3"></path>
    </defs>
    <g id="页面" stroke="none" stroke-width="1" fill="none" fill-rule="evenodd">
        <g id="首页（新）备份-9" transform="translate(-1117.000000, -133.000000)">
            <g id="Financial---Scenes-4备份" transform="translate(1252.000000, 226.068338) scale(-1, 1) translate(-1252.000000, -226.068338) translate(1117.000000, 134.000000)">
                <path d="M251.815241,184 L16.1055647,184 L0,184 L0,75.5970008 C0,67.9189874 6.27775963,61.6943632 14.0213151,61.6943632 C21.7652496,61.6943632 28.0426303,55.4701147 28.0426303,47.7917255 L28.0426303,36.0496329 C28.0426303,21.8866025 39.6223418,10.4049026 53.9062724,10.4049026 L170.718986,10.4049026 C183.067217,10.4049026 193.077299,20.3302586 193.077299,32.5739734 C193.077299,44.8176883 203.08776,54.7430443 215.435612,54.7430443 L222.44627,54.7430443 C238.666279,54.7430443 251.815241,67.7807125 251.815241,83.863434 L251.815241,184 Z" id="Path" stroke="#FFFFFF" fill-opacity="0.5" fill="#F3F6FF"></path>
                <g id="verified-files" transform="translate(119.423077, 19.864308) scale(-1, 1) translate(-119.423077, -19.864308) translate(98.653846, 0.000000)">
                    <ellipse id="Oval" fill="#FFFFFF" fill-rule="nonzero" transform="translate(19.291229, 20.368885) rotate(-18.512800) translate(-19.291229, -20.368885) " cx="19.2912292" cy="20.3688851" rx="15.1477065" ry="15.3865184"></ellipse>
                    <ellipse id="Oval" fill="#1BE3B3" fill-rule="nonzero" transform="translate(22.247232, 19.359732) rotate(-18.512800) translate(-22.247232, -19.359732) " cx="22.2472323" cy="19.3597317" rx="15.1477065" ry="15.3865184"></ellipse>
                    <polygon id="Path" fill="#2C2770" points="28.4922932 14.9932947 19.9712779 25.4196278 13.7517848 18.9056837 15.8473772 16.6049472 19.8020483 20.7473224 26.2368503 12.8737488"></polygon>
                </g>
                <g id="Chair-1" transform="translate(15.916087, 110.363232)">
                    <path d="M1.64016418,71.2296005 C0.870079447,71.2296005 0.266765373,70.5727948 0.338261575,69.8126587 L6.4794392,4.50896357 L10.2473076,4.9101486 L2.93970893,70.0764331 C2.86608566,70.732863 2.30638886,71.2296005 1.64016418,71.2296005 Z" id="Path" fill="#627AC1"></path>
                    <path d="M12.6298322,71.2296005 C11.8597589,71.2296005 11.2564634,70.5727948 11.3279342,69.8126587 L17.4691186,4.50896357 L21.2369871,4.9101486 L13.9293808,70.0764331 C13.8557499,70.732863 13.2960721,71.2296005 12.6298322,71.2296005 Z" id="Path" fill="#627AC1"></path>
                    <path d="M45.57079,71.2296005 C46.3408255,71.2296005 46.944121,70.5727948 46.8724986,69.8126587 L40.7315415,4.50896357 L36.9635973,4.9101486 L44.2713551,70.0764331 C44.3448723,70.732863 44.9045881,71.2296005 45.57079,71.2296005 Z" id="Path" fill="#627AC1"></path>
                    <rect id="Rectangle" fill="#A3BAFF" fill-rule="nonzero" x="2.09979426" y="0" width="47.3693079" height="6.01195143" rx="3.00597571"></rect>
                </g>
                <g id="Vas-1-Copy" transform="translate(176.927084, 39.752481)">
                    <path d="M79.9602314,30.656842 C82.9132691,27.1998817 90.3696894,28.4695508 93.0729161,29.8149408 C85.9321516,42.6836632 79.6326038,33.5958095 77.4445625,46.8305295 C76.5083697,52.4949758 69.5276279,47.1079621 70.0643625,57.0485062 C70.5300645,65.673419 64.5613367,66.4211433 63.8649785,71.0699176 C63.1686203,75.7182966 61.2838639,79.6655854 57.2278267,81.0187608 C51.300601,82.9955668 46.746538,75.8487137 51.2227845,72.4879063 C55.699031,69.1274942 46.9799876,64.149911 53.8430069,60.1753532 C60.7064253,56.2007955 53.3497698,46.9973053 61.9969826,44.6177873 C70.6441954,42.2378741 67.464093,37.1657187 70.2583052,34.4962798 C73.0525174,31.8268803 76.2685351,34.9780719 79.9602314,30.656842 Z" id="Path" fill="#C4D1FF" fill-rule="nonzero"></path>
                    <path d="M49.1632402,3.77801087 C50.6656979,-1.13117064 57.6404538,-0.569274796 60.6333975,1.60436606 C56.4432764,5.35882335 50.1449257,5.21492989 53.8290398,20.0075011 C55.4057226,26.3386551 46.6507638,23.6993701 51.6737213,33.8528891 C56.0318464,42.6631127 49.0886161,46.0385425 50.457389,51.2022664 C51.8257629,56.3663856 52.7523782,61.2475393 49.1632402,64.4415709 C43.9180067,69.1093149 37.727402,63.2002379 40.8492418,57.7231179 C43.9710815,52.2463931 33.799383,51.2548284 39.1152499,44.0886103 C44.4311968,36.9225503 32.9704573,31.9940907 40.8492418,25.7117839 C48.7282657,19.4294771 40.385136,16.2910901 42.0771468,12.2748384 C43.7687586,8.2585867 47.2848688,9.91448776 49.1632402,3.77801087 Z" id="Path" fill="#9FEFE0" fill-rule="nonzero"></path>
                    <path d="M11.2233296,30.9859276 C8.52269678,28.2006151 2.23362427,29.6716796 0,30.9577891 C6.76847264,41.5280893 11.6580247,33.4684355 14.2235361,44.6102784 C15.3215873,49.3787992 20.9876287,44.4308562 21.0560674,52.9134959 C21.1154474,60.2737588 26.2432378,60.5966397 27.0828183,64.513893 C27.922359,68.4307511 29.7380382,71.6895961 33.2674371,72.627413 C38.425157,73.9979775 41.9290959,67.6802604 37.9352719,65.0569021 C33.9414081,62.4335438 41.1110246,57.7424828 35.0499545,54.7219454 C28.9887648,51.701408 34.7733666,43.4879016 27.2756038,41.9177596 C19.7778809,40.3472224 22.2204821,35.8663304 19.6971512,33.7425089 C17.1738204,31.6186873 14.5991306,34.4675485 11.2233296,30.9859276 Z" id="Path" fill="#B6DDFD" fill-rule="nonzero"></path>
                    <path d="M45.9875275,87.0843383 C45.2907702,71.5161019 42.3987885,28.6517394 51.2555074,7.57583379 C52.0276868,5.73817882 53.6498623,1.80197157 57.8399834,1.80197157" id="Path" stroke="#4F4F4F" stroke-width="0.6"></path>
                    <path d="M37.7814346,91.2323902 C37.3791032,76.3589209 30.9718094,43.8886375 8.56148533,32.9952193" id="Path" stroke="#4F4F4F" stroke-width="0.6"></path>
                    <path d="M52.9199831,91.3576696 C54.3350468,75.2152031 63.4343937,40.3310191 88.51167,29.934055" id="Path" stroke="#4F4F4F" stroke-width="0.6"></path>
                    <path d="M32.8987463,84.2017268 L56.8423355,84.2017268 L63.0161797,130.059121 C63.9731235,137.166849 58.3898869,143.482194 51.1493576,143.482194 L38.5915247,143.482194 C31.3511151,143.482194 25.7678386,137.166849 26.7247825,130.059121 L32.8987463,84.2017268 Z" id="Path" fill="#222653" fill-rule="nonzero"></path>
                    <rect id="Rectangle" fill="#00021A" fill-rule="nonzero" x="29.307214" y="84.2017268" width="30.7275549" height="4.34723429" rx="2.17361715"></rect>
                </g>
                <g id="Group-4" transform="translate(150.270098, 121.736011) scale(-1, 1) translate(-150.270098, -121.736011) translate(57.236777, 59.925636)">
                    <path d="M158.402966,0 L163.066641,0 C175.769191,-2.33342044e-15 186.066641,10.2974508 186.066641,23 L186.066641,24.0478057 L186.066641,24.0478057 L158.402966,24.0478057 L158.402966,0 Z" id="Rectangle" fill="#222653" fill-rule="nonzero"></path>
                    <path d="M78.8343097,0 L170.908463,0 C164.791095,0.0518320754 159.859208,5.10866186 159.859208,11.3287341 L159.859208,95.2134124 C159.859208,103.798061 153.517334,111.013018 145.127611,111.972595 L53.0536248,111.972595 C61.4431814,111.013018 67.7856119,103.798061 67.7856119,95.2134124 L67.7856119,11.3287341 C67.7856119,5.10867319 72.7174992,0.0518320754 78.8343097,0 Z" id="Path" fill="#7181FD" fill-rule="nonzero"></path>
                    <path d="M67.8328489,11.2857208 C67.8350775,10.9669501 67.850678,10.6512934 67.8785361,10.3393171 C75.5718182,9.47716405 92.1167205,11.0442364 97.1161281,24.1943496 C99.2662133,29.8501802 98.4416147,36.4551321 97.6537887,42.7585259 C96.1483391,54.8108901 94.7805083,65.7610324 114.612662,66.8668214 C144.816929,68.5512671 157.709082,74.9147913 159.73492,88.3903564 C159.803451,88.8467138 159.864739,89.3042035 159.918783,89.7628257 L159.918783,95.2209958 C159.918783,103.80176 153.575503,111.013452 145.184655,111.972595 L67.8328489,111.972595 L67.8328489,11.2857208 Z" id="Path" fill="#6C7BF9"></path>
                    <path d="M53.7199643,93.5610087 C53.7199643,88.3178498 49.8713872,83.9118913 44.7801817,83.3259079 L39.0323097,82.6643321 L130.830026,82.6643321 C135.123379,83.6527173 138.173715,87.5545368 138.173715,92.0576856 L138.173715,93.5610087 L138.174825,104.267283 C138.174825,108.449306 141.433441,111.868016 145.518514,111.972595 L53.7207974,111.972595 C45.579534,111.868585 39.0323097,105.085159 39.0323097,96.7535098 L39.0323097,93.5610087 L53.7199643,93.5610087 L53.7199643,93.5610087 Z" id="Path" fill="#222653" fill-rule="nonzero"></path>
                    <path d="M104.591432,46.2168703 C104.591432,44.1416861 106.232028,42.459407 108.255615,42.459407 L145.264921,42.459407 C147.288508,42.459407 148.929104,44.1416861 148.929104,46.2168703 L148.929104,48.8471117 C148.929104,50.9222958 147.288508,52.604575 145.264921,52.604575 L108.255615,52.604575 C106.232028,52.604575 104.591432,50.9222958 104.591432,48.8471117 L104.591432,46.2168703 Z" id="Path" fill="#FFFFFF" fill-rule="nonzero"></path>
                    <path d="M104.591432,24.7992933 C104.591432,22.7241091 106.232028,21.04183 108.255615,21.04183 L145.264921,21.04183 C147.288508,21.04183 148.929104,22.7241091 148.929104,24.7992933 L148.929104,27.4295347 C148.929104,29.5047189 147.288508,31.186998 145.264921,31.186998 L108.255615,31.186998 C106.232028,31.186998 104.591432,29.5047189 104.591432,27.4295347 L104.591432,24.7992933 Z" id="Path" fill="#FFFFFF" fill-rule="nonzero"></path>
                    <path d="M77.6856649,24.7992933 C77.6856649,22.7241091 79.3470315,21.04183 81.3962373,21.04183 L91.7859523,21.04183 C93.8357194,21.04183 95.4965247,22.7241091 95.4965247,24.7992933 L95.4965247,27.4295347 C95.4965247,29.5047189 93.8357194,31.186998 91.7859523,31.186998 L81.3962373,31.186998 C79.3470315,31.186998 77.6856649,29.5047189 77.6856649,27.4295347 L77.6856649,24.7992933 Z" id="Path" fill="#FFFFFF" fill-rule="nonzero"></path>
                    <path d="M77.6856649,46.2168703 C77.6856649,44.1416861 79.3470315,42.459407 81.3962373,42.459407 L91.7859523,42.459407 C93.8357194,42.459407 95.4965247,44.1416861 95.4965247,46.2168703 L95.4965247,48.8471117 C95.4965247,50.9222958 93.8357194,52.604575 91.7859523,52.604575 L81.3962373,52.604575 C79.3470315,52.604575 77.6856649,50.9222958 77.6856649,48.8471117 L77.6856649,46.2168703 Z" id="Path" fill="#FFFFFF" fill-rule="nonzero"></path>
                    <path d="M77.6856649,68.0101374 C77.6856649,65.9350669 79.3470315,64.2527309 81.3962373,64.2527309 L91.7859523,64.2527309 C93.8357194,64.2527309 95.4965247,65.9350669 95.4965247,68.0101374 L95.4965247,70.6404924 C95.4965247,72.7155629 93.8357194,74.3978989 91.7859523,74.3978989 L81.3962373,74.3978989 C79.3470315,74.3978989 77.6856649,72.7155629 77.6856649,70.6404924 L77.6856649,68.0101374 Z" id="Path" fill="#FFFFFF" fill-rule="nonzero"></path>
                    <path d="M104.591432,68.0101374 C104.591432,65.9350669 106.232028,64.2527309 108.255615,64.2527309 L145.264921,64.2527309 C147.288508,64.2527309 148.929104,65.9350669 148.929104,68.0101374 L148.929104,70.6404924 C148.929104,72.7155629 147.288508,74.3978989 145.264921,74.3978989 L108.255615,74.3978989 C106.232028,74.3978989 104.591432,72.7155629 104.591432,70.6404924 L104.591432,68.0101374 Z" id="Path" fill="#FFFFFF" fill-rule="nonzero"></path>
                    <path d="M39.4231744,82.6643321 L131.497199,82.6643321 C125.380371,82.7160527 120.44847,87.7897812 120.44847,94.0309163 L120.44847,108.256908 C120.44847,116.043407 114.715475,122.588045 107.13072,123.458201 L105.716831,123.620751 L13.6423607,123.620751 L15.0566403,123.458201 C22.6410612,122.588045 28.3742781,116.043407 28.3742781,108.256908 L28.3742781,94.0309163 C28.3742781,87.7897812 33.3061794,82.7160527 39.4231744,82.6643321 Z" id="Path" fill="#3C51FD" fill-rule="nonzero" opacity="0.744700114"></path>
                    <path d="M99.141905,105.20915 L92.945656,110.094092 L86.7494069,105.20915 L80.5531579,110.094092 L74.3563535,105.20915 L68.1601044,110.094092 L61.9638554,105.20915 L55.7676064,110.094092 L49.5710796,105.20915 L43.3747195,110.094092 L37.1783039,105.20915 L30.9819437,110.094092 L24.7855281,105.20915 L18.589168,110.094092 L12.3927523,105.20915 L6.1963922,110.094092 L0,105.20915 L0,108.402123 C0,116.733522 6.54641695,123.516175 14.6877416,123.620751 L106.486204,123.620751 C102.400545,123.516175 99.141905,120.097 99.141905,115.915671 L99.141905,105.20915 Z" id="Path" fill="#D0DFFF" fill-rule="nonzero"></path>
                    <path d="M69.8166837,88.8742611 C70.3497848,87.3999437 71.7236307,86.4218018 73.2590729,86.4218018 L108.817471,86.4218018 C110.095803,86.4218018 110.982639,87.7256121 110.538943,88.9526944 L108.670868,94.1145104 C108.137767,95.5882595 106.763921,96.5669698 105.228479,96.5669698 L69.6700809,96.5669698 C68.3917489,96.5669698 67.504913,95.262591 67.9486086,94.0355088 L69.8166837,88.8742611 Z" id="Path" fill="#FFFFFF" fill-rule="nonzero"></path>
                    <path d="M40.6416352,88.8742611 C41.1762455,87.3999437 42.5529296,86.4218018 44.0923067,86.4218018 L57.6543766,86.4218018 C58.9356602,86.4218018 59.8245438,87.7256121 59.3798237,88.9526944 L57.5074353,94.1145104 C56.9731033,95.5882595 55.5961965,96.5669698 54.056875,96.5669698 L40.4948609,96.5669698 C39.2134103,96.5669698 38.324471,95.262591 38.7695251,94.0355088 L40.6416352,88.8742611 Z" id="Path" fill="#FFFFFF" fill-rule="nonzero"></path>
                </g>
                <g id="编组-46" transform="translate(125.653846, 183.618497) scale(-1, 1) translate(-125.653846, -183.618497) translate(0.000000, 183.100319)" fill="#07076B" fill-rule="nonzero">
                    <rect id="矩形" x="0" y="0" width="251.307692" height="1.03635673"></rect>
                </g>
                <g id="Group-37" transform="translate(1.746677, 20.815236)">
                    <g id="Path" transform="translate(13.239167, 68.506166)">
                        <path d="M55.011214,90.2747111 L50.5391724,86.4740306 C48.1600963,84.4521362 48.6152206,78.2767348 48.6152206,78.2767348 L42.2196061,77.9340536 L42.2196061,84.7899327 L41.1824078,88.3892129 L54.4928043,90.9604493 L55.011214,90.2747111 Z" fill="#FFAE64" fill-rule="nonzero"></path>
                        <path d="M52.7787933,94.3883889 L57.0522628,94.3883889 C57.608189,94.3883889 58.1220512,94.095682 58.4020986,93.6196106 C58.8253907,92.9000552 58.6021865,91.9764691 57.9033945,91.5150519 C57.0583261,90.9574434 55.8252082,90.1285456 54.3200011,89.0749511 C51.3812092,87.0181122 50.1712076,85.6470115 50.1712076,85.6470115 C50.1712076,85.6470115 48.4424174,86.675431 45.8496109,86.675431 C43.2568045,86.675431 41.8736207,84.7899327 41.8736207,84.7899327 C40.7613894,87.5479154 40.7212202,90.6173924 41.7618292,93.4028046 L41.8736207,93.7026507 L46.8868093,94.0453319 L47.7512044,93.3599695 L50.0374367,94.0077572 C50.9287376,94.2602592 51.8514917,94.3883889 52.7787933,94.3883889 Z" fill="#222653" fill-rule="nonzero"></path>
                        <path d="M34.5477109,90.2747111 L30.0756693,86.4740306 C27.6966311,84.4521362 28.1518312,78.2767348 28.1518312,78.2767348 L21.7559515,77.9340536 L21.7559515,84.7899327 L20.718791,88.3892129 L34.0291118,90.9604493 L34.5477109,90.2747111 Z" fill="#FFAE64" fill-rule="nonzero"></path>
                        <path d="M32.3152144,94.3883889 L36.5887218,94.3883889 C37.144648,94.3883889 37.6585102,94.095682 37.9385576,93.6196106 C38.3618497,92.9000552 38.1386455,91.9764691 37.4398535,91.5150519 C36.5947851,90.9574434 35.3616672,90.1285456 33.8563085,89.0749511 C30.9176682,87.0181122 29.7076287,85.6470115 29.7076287,85.6470115 C29.7076287,85.6470115 27.9789901,86.675431 25.3860699,86.675431 C22.7931498,86.675431 21.4102692,84.7899327 21.4102692,84.7899327 C20.2976589,87.5479154 20.257755,90.6173924 21.2982124,93.4028046 L21.4102692,93.7026507 L26.4232304,94.0453319 L27.2875498,93.3599695 L29.5738578,94.0077572 C30.4653861,94.2602592 31.3880265,94.3883889 32.3152144,94.3883889 Z" fill="#222653" fill-rule="nonzero"></path>
                        <path d="M31.0502265,84.1338785 L19.1131609,84.1338785 L17.4078658,28.1475808 L10.1527448,25.7044365 C3.03726838,23.3082981 -2.66982373,13.0959841 1.30919814,0 L29.1315225,1.50298786 L46.0546253,13.0959841 C49.8832023,14.4561881 52.4089337,18.0871813 52.3312481,22.1186832 L51.1348888,84.1338785 L39.9557322,84.1338785 L37.8714826,26.4567195 L29.7216122,22.0583007 C32.2724683,23.4349624 33.8056044,26.1359443 33.6689534,29.0124376 L31.0502265,84.1338785 Z" fill="#222653" fill-rule="nonzero"></path>
                        <path d="M1.30919814,0 C1.30919814,17.3336689 5.43980178,22.9957142 20.4463985,26.3022875 L20.4463985,84.16732" stroke="#FFFFFF"></path>
                        <polyline stroke="#FFFFFF" points="29.1623512 21.417577 41.8573257 25.3629201 41.4783712 84.16732"></polyline>
                    </g>
                    <g id="Man-top-2">
                        <path d="M14.163234,31.9106284 L21.988871,29.874418 L36.3894059,29.874418 C42.5508265,29.874418 48.5201172,32.0010707 53.2725851,35.8893378 L60.0717861,41.4523844 L54.9559008,54.4156546 L45.9208685,48.0279562 L44.9136076,54.4156546 L46.3752349,66.686799 C46.591239,68.5020326 45.1371907,70.0865575 43.2943351,70.0444739 L15.7648471,69.4150977 C14.0493582,69.37602 12.7086173,67.9339032 12.8082065,66.2355269 L13.5733535,53.1862106 L10.8075922,58.4575647 L0.803308068,56.318813 L4.37112644,41.7935626 C5.55691285,36.9661159 9.3163685,33.1717855 14.163234,31.9106284 Z" id="Path" fill="#FFE071" fill-rule="nonzero"></path>
                        <g id="Clipped" transform="translate(0.527050, 29.804228)">
                            <mask id="mask-2" fill="white">
                                <use xlink:href="#path-1"></use>
                            </mask>
                            <g id="Path"></g>
                            <g id="Group" mask="url(#mask-2)" stroke="#D7BE67">
                                <g transform="translate(2.273727, -3.757470)" id="Oval">
                                    <ellipse stroke-width="5" transform="translate(44.337672, 6.011951) scale(-1, 1) rotate(-180.000000) translate(-44.337672, -6.011951) " cx="44.3376722" cy="6.01195143" rx="5.87379418" ry="5.82407794"></ellipse>
                                    <ellipse stroke-width="5" transform="translate(3.410590, 12.775397) scale(-1, 1) rotate(-180.000000) translate(-3.410590, -12.775397) " cx="3.41059017" cy="12.7753968" rx="3.22111294" ry="3.1938492"></ellipse>
                                    <ellipse stroke-width="3" transform="translate(20.084587, 21.041830) scale(-1, 1) rotate(-180.000000) translate(-20.084587, -21.041830) " cx="20.0845865" cy="21.04183" rx="2.08424955" ry="2.0666083"></ellipse>
                                    <ellipse stroke-width="3" transform="translate(23.495177, 43.962395) scale(-1, 1) rotate(-180.000000) translate(-23.495177, -43.962395) " cx="23.4951767" cy="43.9623948" rx="5.49483971" ry="5.44833098"></ellipse>
                                    <ellipse stroke-width="3" transform="translate(51.158853, 27.053781) scale(-1, 1) rotate(-180.000000) translate(-51.158853, -27.053781) " cx="51.1588525" cy="27.0537814" rx="5.49483971" ry="5.44833098"></ellipse>
                                </g>
                            </g>
                        </g>
                        <path d="M22.0428341,28.1573671 C22.754738,26.3941745 22.6360873,20.663883 22.4877646,18.0191128 C25.7508278,18.6068187 32.1432211,20.7961083 31.6092743,24.851395 C31.0753274,28.9067193 32.5737134,29.9205222 33.3892234,29.9205222 C34.2793874,31.8306319 34.8576719,35.8712644 30.0521125,36.7528419 C25.2465152,37.6344195 21.2270589,33.4469074 19.8180304,31.242926 C20.2629608,30.9490543 21.3308924,29.9205222 22.0428341,28.1573671 Z" id="Path" fill="#FF9330" fill-rule="nonzero"></path>
                        <path d="M20.2816054,8.27682069 C16.6090061,9.73697339 20.3339769,14.3766969 21.9459355,16.647937 L27.3621421,16.647937 C29.2191327,16.647937 33.5521738,14.3118054 35.4867363,13.1437584 C37.4209199,12.3001313 41.8698453,10.2236033 40.1289285,8.27682069 C36.8687833,5.54254761 41.5030174,3.12624664 36.5766094,0.683868823 C31.6502014,-1.75851275 29.1869973,3.12623161 24.0711121,3.12622785 C18.9552268,3.12622409 23.3132032,7.07153715 20.2816054,8.27682069 Z" id="Path" fill="#222653" fill-rule="nonzero"></path>
                        <g id="Clipped" transform="translate(19.853728, 17.780326)">
                            <mask id="mask-4" fill="white">
                                <use xlink:href="#path-3"></use>
                            </mask>
                            <g id="Path"></g>
                            <path d="M12.4217483,10.6414922 C5.22275041,9.86561229 2.90138906,3.85268392 2.6405547,0.943237604 L12.4217483,6.37424665 C15.4211729,8.11992947 19.6203673,11.4173345 12.4217483,10.6414922 Z" id="Path" fill="#D76767" fill-rule="nonzero" mask="url(#mask-4)"></path>
                        </g>
                        <path d="M22.6834188,18.6207213 C22.5384687,21.0367743 25.5096232,25.4295569 30.9445881,25.2099328 C34.1179528,25.0816903 34.9194415,21.4848525 35.7277514,17.5225256 C36.3037622,14.6978854 37.3940142,11.6874759 37.0321126,9.6154944 L32.2493284,8.07801297 C32.901509,8.95658452 34.2058703,10.2744043 32.0318085,10.2744043 C29.8805219,10.2744043 27.828673,9.6154944 27.0315423,8.95658452 C26.5967299,11.5922616 24.6400743,11.3725999 24.6400743,12.6904573 L24.6400743,16.42433 C22.9008628,16.6000293 22.6109627,14.8868486 22.6834188,14.008277 C21.9587441,13.5689912 20.5093949,13.2615175 20.5093949,15.5457584 C20.5093949,17.830037 21.9587441,18.5475258 22.6834188,18.6207213 Z" id="Path" fill="#FF9330" fill-rule="nonzero"></path>
                        <path d="M25.4102614,17.3245821 C25.1070978,16.8736858 24.6523903,16.0094678 24.6523903,15.2579738 C24.0208248,14.1307329 22.7955135,12.4774463 22.9470574,14.8822269 C22.9470574,16.3852147 23.1365346,17.7003291 23.1365346,18.82757 C23.1365346,21.4577987 22.757618,23.5619817 25.0313448,25.9667623 C27.8735033,28.972738 34.1262898,28.7848645 35.8315849,26.5303828 C37.9215188,23.7672147 35.8315849,22.2092927 35.4526304,19.7669374 C32.8632346,19.8295744 30.147268,19.7669374 28.0629426,19.5790639 C26.3576475,19.4253458 25.9786931,18.0760761 25.4102614,17.3245821 Z" id="Path" fill="#222653" fill-rule="nonzero"></path>
                        <path d="M29.3096649,19.7175267 L31.7297818,20.9173243 C31.5569786,21.2601183 31.003705,21.7057542 30.1737948,21.431534 C29.3442256,21.1572763 29.2520638,20.2888875 29.3096649,19.7175267 Z" id="Path" fill="#FFFFFF" fill-rule="nonzero"></path>
                        <rect id="Rectangle" fill="#2C2770" fill-rule="nonzero" transform="translate(35.359698, 13.033011) scale(-1, 1) translate(-35.359698, -13.033011) " x="33.9768037" y="12.518816" width="2.76578778" height="1.02838938" rx="0.514194691"></rect>
                        <rect id="Rectangle" fill="#2C2770" fill-rule="nonzero" transform="translate(28.445294, 13.033011) scale(-1, 1) translate(-28.445294, -13.033011) " x="27.0624005" y="12.518816" width="2.76578778" height="1.02838938" rx="0.514194691"></rect>
                        <ellipse id="Oval" fill="#000000" fill-rule="nonzero" transform="translate(28.618225, 14.746996) scale(-1, 1) translate(-28.618225, -14.746996) " cx="28.6182246" cy="14.7469955" rx="1" ry="1"></ellipse>
                        <polyline id="Path" stroke="#000000" points="32.5941769 13.204404 32.5941769 19.3747327 31.0381899 19.3747327"></polyline>
                        <ellipse id="Oval" fill="#000000" fill-rule="nonzero" transform="translate(35.186983, 14.746996) scale(-1, 1) translate(-35.186983, -14.746996) " cx="35.1869834" cy="14.7469955" rx="1" ry="1"></ellipse>
                        <path d="M29.8388369,62.568988 L36.1631701,44.8919721 C36.2961831,44.5199826 36.6971169,44.3133218 37.0809978,44.4192824 L49.9502913,47.9753517 C50.3800257,48.0940877 50.6142196,48.5532505 50.4554376,48.9665722 L43.711564,66.527858 C43.5721088,66.8904539 43.1768593,67.0884725 42.7997996,66.9843906 L30.3496296,63.5440514 C29.9266028,63.4271941 29.6919921,62.9793037 29.8388369,62.568988 Z" id="Path" fill="#222653" fill-rule="nonzero"></path>
                        <path d="M26.1117819,55.454595 L10.9228702,58.3564888 L0.765412621,56.2943895 L0.0216386967,64.3068177 C-0.30835485,67.8617598 3.19367703,70.5554897 6.5842963,69.3546024 L27.6975168,61.8779893 L30.3818408,62.0155127 C30.4614212,62.019646 30.5410016,62.0173915 30.6202031,62.009125 L34.0292775,61.6506624 C34.0588359,61.6476565 34.0887733,61.646905 34.1183318,61.6487837 L39.0898354,61.9407391 C39.5017589,61.9647869 39.8655552,61.6758375 39.9318722,61.2719095 C40.0031156,60.8371703 39.7052574,60.4272303 39.2664282,60.3565899 L35.3753237,59.7302197 L40.0660221,59.5344555 C40.4150391,59.5198014 40.6928128,59.2394942 40.7015287,58.8934312 C40.7102447,58.549247 40.4499029,58.2561644 40.1046754,58.2219714 L35.6944034,57.7819717 L40.5931477,56.9515709 C40.9827129,56.8854394 41.2585918,56.5378735 41.232065,56.1470967 C41.2047802,55.7465504 40.8694055,55.4350562 40.4643032,55.4346804 L35.190394,55.4271655 L40.4104917,54.4348177 C40.9186696,54.3382508 41.2199384,53.8148352 41.0456194,53.3320004 C40.9190486,52.9810527 40.5738211,52.7556046 40.1990351,52.7789009 L33.3456436,53.2049979 L34.3028826,50.658185 L30.0375606,51.9533848 C29.5442756,52.1033078 29.0976778,52.3753486 28.7400964,52.7443321 L26.1117819,55.454595 Z" id="Path" fill="#FF9330" fill-rule="nonzero"></path>
                        <path d="M79.3984637,23.9801505 L59.8823089,41.8281313 L55.3348553,53.2884137 L55.8843393,53.4548697 C59.6575889,54.5978919 63.7502971,53.3026921 66.1581737,50.2035312 L83.75644,27.5497467 L91.5250065,26.0467588 L97.1577857,26.3958278 C97.3635579,26.4086032 97.5170345,26.2107724 97.4518543,26.0168118 C97.3002725,25.5652767 96.9334446,25.217072 96.4718781,25.086312 L85.2722579,21.9135422 L85.7811937,20.7364397 C86.195391,19.7776838 86.4091213,18.7454693 86.4091213,17.7023581 C86.4091213,17.3881961 86.0241035,17.2330502 85.8031731,17.4581226 L79.3984637,23.9801505 Z" id="Path" fill="#FF9330" fill-rule="nonzero"></path>
                    </g>
                </g>
            </g>
        </g>
    </g>
</svg>