<?xml version="1.0" encoding="UTF-8"?>
<svg width="18px" height="24px" viewBox="0 0 18 24" version="1.1" xmlns="http://www.w3.org/2000/svg" xmlns:xlink="http://www.w3.org/1999/xlink">
    <title>金牌备份</title>
    <g id="页面" stroke="none" stroke-width="1" fill="none" fill-rule="evenodd">
        <g id="首页（新）备份-6" transform="translate(-670.000000, -1241.000000)" fill-rule="nonzero">
            <g id="编组-37" transform="translate(274.000000, 954.000000)">
                <g id="编组-4备份-3" transform="translate(364.000000, 271.000000)">
                    <g id="金牌备份" transform="translate(32.000000, 16.000000)">
                        <polygon id="路径" fill="#8F1D3D" points="2.90322 -4.85135316e-16 14.9806691 -4.85135316e-16 14.9806691 5.6195054 2.90322 5.6195054"></polygon>
                        <polygon id="路径" fill="#AFAEAE" points="2.90322 1.87316934 14.9806691 1.87316934 14.9806691 3.74633859 2.90322 3.74633859"></polygon>
                        <path d="M2.90322,0.0167169442 L2.77050076,0.117072966 C2.00736578,1.13728057 0.929023267,2.60906328 -9.62448171e-16,3.86340207 L5.05992434,11.6404012 L9.27374977,9.73378227 L2.90322536,0.0167169442 L2.90322,0.0167169442 Z" id="路径" fill="#FC4747"></path>
                        <path d="M1.9575951,1.23762814 C1.64238758,1.67247373 1.32718005,2.10731696 0.995380209,2.5421602 L6.50322969,10.9881525 L7.91336971,10.3526137 L1.9575951,1.23762814 L1.9575951,1.23762814 Z" id="路径" fill="#FFFFFF"></path>
                        <path d="M15.0304205,0.0167169442 L15.2294992,0.117072966 C15.9926342,1.1540054 17.0709767,2.60906328 18,3.86340207 L12.9400757,11.6404012 L8.72625023,9.73378227 L15.0304007,0.0167169442 L15.0304205,0.0167169442 Z" id="路径" fill="#FC4747"></path>
                        <g id="a-link" transform="translate(10.103242, 1.237628)" fill="#FFFFFF">
                            <path d="M5.93917763,1.33412367e-15 C6.25438516,0.434845585 6.56959268,0.869688823 6.9013902,1.30453206 L1.41014003,9.76723512 L0,9.13169627 L5.93917531,1.33412367e-15 L5.93917763,1.33412367e-15 Z" id="a"></path>
                        </g>
                        <g id="a-link" transform="translate(10.103242, 1.237628)" fill="#FFFFFF">
                            <path d="M5.93917763,1.33412367e-15 C6.25438516,0.434845585 6.56959268,0.869688823 6.9013902,1.30453206 L1.41014003,9.76723512 L0,9.13169627 L5.93917531,1.33412367e-15 L5.93917763,1.33412367e-15 Z" id="a"></path>
                        </g>
                        <path d="M14.2341195,9.63345066 L14.3668387,9.43275387 C13.2221363,8.39582144 11.7954132,7.67665843 10.1861886,7.45923564 L9.98710989,7.76028023 C11.5963298,7.94425219 13.0728345,8.61324188 14.2341106,9.63345066" id="路径" fill="#174A7A"></path>
                        <path d="M12.9898701,8.74702996 L13.1391791,8.49615985 C12.6912516,8.22856492 12.2267342,8.01114213 11.745629,7.82717134 L11.5797301,8.09476628 C12.0608375,8.26201364 12.525355,8.49615985 12.9898701,8.74702996" id="路径" fill="#AFAEAE"></path>
                        <path d="M3.74929564,9.63345183 C4.9271781,8.61324305 6.37049578,7.94425219 7.99629639,7.76028141 L7.79721765,7.45923681 C6.2211777,7.71010692 4.7612677,8.39582261 3.63314357,9.43275504 L3.74927282,9.63345183 L3.74929564,9.63345183 Z" id="路径" fill="#174A7A"></path>
                        <path d="M4.99354505,8.7470309 C5.44147251,8.47943502 5.92257996,8.27873706 6.40368508,8.11149111 L6.23778609,7.84389617 C5.75667864,8.01114353 5.29216119,8.24528975 4.84423605,8.51288469 C4.86082595,8.51288469 4.99354505,8.7470309 4.99354505,8.7470309" id="路径" fill="#AFAEAE"></path>
                        <path d="M0.912420936,15.8383251 C0.912420936,20.3372716 4.54559664,24 9.00829523,24 C13.4709705,24 17.1041695,20.337295 17.1041695,15.8383251 C17.1041695,11.3393786 13.4543945,7.67665022 8.99171921,7.67665022 C4.52904389,7.67665022 0.912420936,11.3393552 0.912420936,15.8383251" id="路径" fill="#FCBF44"></path>
                        <path d="M2.58799618,15.8383251 C2.58799618,19.4174059 5.47464551,22.3108062 9.00829523,22.3108062 C12.5419449,22.3108062 15.4285943,19.4006952 15.4285943,15.8383251 C15.4285943,12.2592443 12.5419449,9.36584398 9.00829523,9.36584398 C5.47464551,9.36584398 2.58799618,12.2592208 2.58799618,15.8383251" id="路径" fill="#F9D710"></path>
                        <path d="M8.99169592,9.66689562 C12.4921703,9.66689562 15.329045,12.4766483 15.411995,15.9888392 L15.411995,15.8383167 C15.411995,12.2592359 12.5253456,9.36583553 8.99169592,9.36583553 C5.44147018,9.36583553 2.57139688,12.2759466 2.57139688,15.8383167 L2.57139688,15.9888392 C2.65434637,12.4766483 5.50779756,9.66689562 8.99169592,9.66689562" id="路径" fill="#ABAFC6"></path>
                        <path d="M14.3668208,9.43275739 L14.2341016,9.63345418 C15.9428615,11.088505 17.0212016,13.2460034 17.0709763,15.6878145 L17.0709763,15.5205672 C17.0875662,13.0787561 16.0424037,10.9045516 14.3668262,9.43275739 M3.6331757,9.43275739 C1.97418579,10.9379872 0.912426291,13.112201 0.912426291,15.5205672 L0.912426291,15.6878145 C0.962196034,13.2627376 2.04053878,11.1219547 3.74930099,9.63345418 L3.63317174,9.43275739 L3.6331757,9.43275739 Z M8.99170128,7.34216981 C8.5769538,7.34216981 8.17879632,7.37561923 7.78063883,7.44251808 L7.97971757,7.74356268 C8.64331261,7.67666383 9.32349996,7.67666383 9.98709499,7.74356268 L10.1861737,7.44251808 C9.80460624,7.37561923 9.38985876,7.34216981 8.99170128,7.34216981" id="形状" fill="#AFAEAE"></path>
                        <path d="M8.32811952,19.8020817 L8.32811952,14.4501595 L6.83502953,14.4501595 L6.83502953,13.4466767 L6.96774877,13.4466767 C7.96314132,13.4466767 8.5769687,13.062008 8.7262763,12.2257712 L9.85438879,12.2257712 L9.85438879,19.8020817 L8.32811882,19.8020817 L8.32811952,19.8020817 Z" id="路径" fill="#ABAFC6"></path>
                        <path d="M8.32811952,19.5010301 L8.32811952,14.1491079 L6.83502953,14.1491079 L6.83502953,13.1456251 L6.96774877,13.1456251 C7.96314132,13.1456251 8.5769687,12.7609564 8.7262763,11.9247195 L9.85438879,11.9247195 L9.85438879,19.5010301 L8.32811882,19.5010301 L8.32811952,19.5010301 Z" id="路径" fill="#FFFFFF"></path>
                    </g>
                </g>
            </g>
        </g>
    </g>
</svg>