<?xml version="1.0" encoding="UTF-8"?>
<svg width="18px" height="24px" viewBox="0 0 18 24" version="1.1" xmlns="http://www.w3.org/2000/svg" xmlns:xlink="http://www.w3.org/1999/xlink">
    <title>银牌</title>
    <g id="页面" stroke="none" stroke-width="1" fill="none" fill-rule="evenodd">
        <g id="首页（新）备份-6" transform="translate(-670.000000, -1297.000000)" fill-rule="nonzero">
            <g id="编组-37" transform="translate(274.000000, 954.000000)">
                <g id="编组-4备份-9" transform="translate(364.000000, 327.000000)">
                    <g id="银牌" transform="translate(32.000000, 16.000000)">
                        <polygon id="路径" fill="#174A7A" points="2.89625964 0 14.9969748 0 14.9969748 5.62499971 2.89625964 5.62499971"></polygon>
                        <polygon id="路径" fill="#AFAEAE" points="2.89625964 1.8749999 14.9969748 1.8749999 14.9969748 3.74999981 2.89625964 3.74999981"></polygon>
                        <path d="M2.893281,0.0178124991 L2.77017949,0.110156244 C2.00695015,1.15073432 0.934594083,2.60920299 9.62021289e-16,3.86742168 L5.06717448,11.654015 L9.29590903,9.73321825 L2.893281,0.0178124991 Z" id="路径" fill="#2E79BF"></path>
                        <path d="M1.94155975,1.23843744 C1.63126949,1.66035929 1.30226966,2.10703114 0.971873594,2.55464049 L6.47676818,11.0137963 L7.88636187,10.3735776 L1.94155975,1.23843744 Z" id="路径" fill="#FFFFFF"></path>
                        <path d="M15.0265285,0.0178124991 L15.2298205,0.110156244 C15.9930033,1.15073432 17.0654059,2.60920299 18,3.86742168 L12.9328255,11.654015 L8.70409097,9.73321825 L15.0265285,0.0178124991 Z" id="路径" fill="#2E79BF"></path>
                        <g id="a-link" transform="translate(10.113638, 1.238437)" fill="#FFFFFF">
                            <path d="M5.94480212,0 C6.25513893,0.421921853 6.58404567,0.868593705 6.91453482,1.31620306 L1.40954715,9.77535887 L0,9.13514016 L5.94480212,0 Z" id="a"></path>
                        </g>
                        <g id="a-link" transform="translate(10.113638, 1.238437)" fill="#FFFFFF">
                            <path d="M5.94480212,0 C6.25513893,0.421921853 6.58404567,0.868593705 6.91453482,1.31620306 L1.40954715,9.77535887 L0,9.13514016 L5.94480212,0 Z" id="a"></path>
                        </g>
                        <path d="M14.2484525,9.63234326 L14.3841667,9.42379639 C13.2333887,8.39137457 11.7885167,7.68468711 10.1915947,7.44745274 L9.99551653,7.74876523 C11.6074714,7.94779647 13.0729611,8.62368706 14.2484525,9.63234326 L14.2484525,9.63234326 Z" id="路径" fill="#174A7A"></path>
                        <path d="M12.9969593,8.74907768 L13.1511975,8.51198394 L13.1511975,8.51198434 C12.7092562,8.24552107 12.2429691,8.02234452 11.7587333,7.84551562 L11.5851809,8.11228123 L11.5851809,8.11228113 C12.0749736,8.27842112 12.5477462,8.49166861 12.9969573,8.74907768 L12.9969593,8.74907768 Z" id="路径" fill="#AFAEAE"></path>
                        <path d="M3.7515475,9.63234326 C4.92336214,8.62682768 6.38326688,7.95192147 7.98921795,7.7504996 L7.79109201,7.44989024 C6.2010115,7.68960898 4.76242263,8.39507769 3.61583332,9.42374952 L3.7515475,9.63234326 L3.7515475,9.63234326 Z" id="路径" fill="#174A7A"></path>
                        <path d="M5.00299415,8.74907816 L5.00299331,8.74907816 C5.45220676,8.49166411 5.92498171,8.27840162 6.41477212,8.11223444 L6.24121994,7.84551543 L6.2412207,7.84551543 C5.75697568,8.02233987 5.29068625,8.24553259 4.84875417,8.51203102 L5.00299175,8.74907816 L5.00299415,8.74907816 Z" id="路径" fill="#AFAEAE"></path>
                        <path d="M0.90182907,15.8437492 L0.90182907,15.8437504 C0.90182907,20.3483205 4.52750586,24 9,24 C13.4724941,24 17.0981709,20.3483205 17.0981709,15.8437504 L17.0981709,15.8437504 C17.0981709,11.3391803 13.4724941,7.68750084 9,7.68750084 C4.52750586,7.68750084 0.90182907,11.3391803 0.90182907,15.8437504 L0.90182907,15.8437492 Z" id="路径" fill="#D9DBEE"></path>
                        <path d="M2.57545106,15.8437492 L2.57545106,15.8437502 C2.57545106,19.4173828 5.45181433,22.3143748 9,22.3143748 C12.5481857,22.3143748 15.4245489,19.4173828 15.4245489,15.8437502 L15.4245489,15.8437502 C15.4245489,12.2701175 12.5481857,9.3731255 9,9.3731255 C5.45181433,9.3731255 2.57545106,12.2701175 2.57545106,15.8437502 L2.57545106,15.8437492 Z" id="路径" fill="#C1C4D8"></path>
                        <path d="M9,9.67335888 C12.4983633,9.67335888 15.3433811,12.4895619 15.4225942,15.9938429 C15.4237112,15.9439211 15.4245024,15.8939054 15.4245024,15.8437492 C15.4245024,12.27014 12.5481624,9.37312452 9,9.37312452 C5.45179106,9.37312452 2.57545106,12.27014 2.57545106,15.8437492 C2.57545106,15.8939054 2.57619572,15.9439211 2.57735925,15.9938429 C2.65657239,12.4895619 5.5016367,9.67335888 9,9.67335888 Z" id="路径" fill="#ABAFC6"></path>
                        <path d="M14.3841667,9.42379639 L14.2484525,9.63234326 C15.9535364,11.0954526 17.0486045,13.2582181 17.0961231,15.6796867 C17.097147,15.6250773 17.0981709,15.570468 17.0981709,15.5156242 C17.0981244,13.0930775 16.049132,10.9176557 14.3841667,9.42379639 L14.3841667,9.42379639 Z M3.61583332,9.42379639 C1.95086799,10.9176557 0.90182907,13.0930775 0.90182907,15.5156242 C0.90182907,15.570468 0.902806435,15.6250773 0.903876883,15.6796867 C0.951348919,13.2582181 2.04646364,11.0954526 3.7515475,9.63234326 L3.61583332,9.42379639 Z M9,7.35937462 C8.58918072,7.35937462 8.18552879,7.39045275 7.79109201,7.44993712 L7.98921795,7.75054655 L7.98921734,7.75054655 C8.65538032,7.66707461 9.32921097,7.66649195 9.99551591,7.74881203 L10.1915948,7.44749954 L10.1915948,7.44749965 C9.79706958,7.3888302 9.39880246,7.35937462 9.00000012,7.35937462 L9,7.35937462 Z" id="形状" fill="#AFAEAE"></path>
                        <path d="M6.10564855,20.062499 L6.10564855,18.4936397 C6.22767961,18.3778584 6.54927939,18.1014366 7.07044788,17.6656397 C9.09191889,16.0389367 10.0868304,14.9201711 10.0567182,14.3100461 C9.99500458,13.6999212 9.65827891,13.3662649 9.04598272,13.3077181 C8.43294187,13.3662649 8.0962162,13.758468 8.03520067,14.4843743 L6.24345708,14.4843743 C6.24345708,13.0319993 7.17735305,12.2618431 9.04598272,12.1747025 C10.8219023,12.2618431 11.7565429,12.9884056 11.8484618,14.3536399 C11.8484618,15.2545305 10.9597108,16.4168429 9.18379125,17.8399678 C8.66262275,18.2179209 8.23407127,18.5808272 7.89739214,18.9294365 L11.8943514,18.9294365 L11.8943514,20.062499 L6.10564855,20.062499 L6.10564855,20.062499 Z" id="路径" fill="#ABAFC6"></path>
                        <path d="M6.10564855,19.7876709 L6.10564855,18.2188116 C6.22767961,18.1030303 6.54927939,17.8266085 7.07044788,17.3908116 C9.09191889,15.7641086 10.0868304,14.645343 10.0567182,14.035218 C9.99500458,13.4250931 9.65827891,13.0914368 9.04598272,13.03289 C8.43294187,13.0914368 8.0962162,13.4836399 8.03520067,14.2095461 L6.24345708,14.2095461 C6.24345708,12.7571712 7.17735305,11.987015 9.04598272,11.8998744 C10.8219023,11.987015 11.7565429,12.7135775 11.8484618,14.0788118 C11.8484618,14.9797024 10.9597108,16.1420148 9.18379125,17.5651397 C8.66262275,17.9430928 8.23407127,18.3059991 7.89739214,18.6546084 L11.8943514,18.6546084 L11.8943514,19.7876709 L6.10564855,19.7876709 L6.10564855,19.7876709 Z" id="路径" fill="#FFFFFF"></path>
                    </g>
                </g>
            </g>
        </g>
    </g>
</svg>